<?xml version="1.0" encoding="utf-8"?>
<!-- Svg Vector Icons : http://www.onlinewebfonts.com/icon -->
<!DOCTYPE svg PUBLIC "-//W3C//DTD SVG 1.1//EN" "http://www.w3.org/Graphics/SVG/1.1/DTD/svg11.dtd">
<svg version="1.1" xmlns="http://www.w3.org/2000/svg" xmlns:xlink="http://www.w3.org/1999/xlink" x="0px" y="0px" viewBox="0 0 1000 1000" enable-background="new 0 0 1000 1000" xml:space="preserve">
<metadata> Svg Vector Icons : http://www.onlinewebfonts.com/icon </metadata>
<g><path d="M868,10.5H136.4L10,547.8v317.3c0,81.9,29,124.5,110.7,124.5h753.6c76.5,0,115.7-32.3,115.7-129.5V547.8L868,10.5L868,10.5z M623.9,623.8H376.6v-63.3h247.4V623.8L623.9,623.8z M101.6,501.7L188,70.3h630l83.6,431.4H101.6L101.6,501.7z"/><path d="M254.7,255.6h487.7V315H254.7V255.6L254.7,255.6z"/><path d="M316.1,132.9h365v59.4h-365V132.9L316.1,132.9z"/><path d="M193.4,378.3h610.7v59.2H193.4V378.3z"/></g>
</svg>