<?xml version="1.0" standalone="no"?>
<!DOCTYPE svg PUBLIC "-//W3C//DTD SVG 20010904//EN"
 "http://www.w3.org/TR/2001/REC-SVG-20010904/DTD/svg10.dtd">
<svg version="1.0" xmlns="http://www.w3.org/2000/svg"
 width="512.000000pt" height="512.000000pt" viewBox="0 0 512.000000 512.000000"
 preserveAspectRatio="xMidYMid meet">

<g transform="translate(0.000000,512.000000) scale(0.100000,-0.100000)"
fill="#000000" stroke="none">
<path d="M2412 5109 c-278 -46 -544 -243 -670 -494 -82 -165 -102 -301 -102
-697 l0 -258 -367 0 c-229 0 -382 -4 -406 -11 -49 -13 -113 -71 -126 -112 -6
-18 -47 -702 -92 -1522 -92 -1669 -91 -1564 -19 -1711 63 -129 180 -229 329
-282 42 -15 188 -17 1561 -20 1064 -2 1534 0 1580 8 36 6 101 29 146 50 150
72 267 229 295 395 11 62 2 260 -70 1550 -45 814 -86 1498 -92 1520 -14 51
-73 110 -124 124 -26 7 -172 11 -412 11 l-373 0 0 325 c0 359 -6 413 -62 559
-64 165 -211 341 -370 439 -177 111 -421 160 -626 126z m331 -387 c156 -57
286 -192 339 -351 20 -61 22 -89 26 -388 l3 -323 -550 0 -551 0 0 298 c0 216
4 315 14 363 42 197 194 357 396 415 70 20 251 13 323 -14z"/>
</g>
</svg>
